<?xml version="1.0" encoding="utf-8"?>
<!-- Generator: Adobe Illustrator 22.0.0, SVG Export Plug-In . SVG Version: 6.00 Build 0)  -->
<svg version="1.1" id="Layer_1" xmlns="http://www.w3.org/2000/svg" xmlns:xlink="http://www.w3.org/1999/xlink" x="0px" y="0px"
	 viewBox="0 0 828 576" style="enable-background:new 0 0 828 576;" xml:space="preserve">
<style type="text/css">
	.st0{fill:#F495BF;}
</style>
<g>
	<g>
		<path class="st0" d="M507.4,386c-9.1-12-17.8-24.5-27.5-36.1c-22.2-26.7-48.1-49.1-76.6-69c-8.7-6.1-15.8-14.6-23.6-22
			c-2.9-2.7-5.8-5.4-8.8-8c-3.3-2.8-5.7-1.9-6.6,2.5c-0.2,1.1-0.1,2.3-0.3,3.4c-1.7,13.9-3.4,27.7-5.1,41.6c-1,7.9-1.7,15.7-3,23.5
			c-0.3,2.1-2.1,3.9-3.2,5.8c-1.3-2-3.7-4.1-3.6-6c0.5-7.9,1.7-15.7,2.7-23.5c1.6-12.5,3.1-25.1,4.8-37.6
			c1.8-13.3,3.8-26.5,5.5-39.8c0.6-4.6,0.1-9.4,0.2-14.1c0.1-2.9,0.6-5.8,0.9-8.7c0.9-0.1,1.8-0.3,2.7-0.4c1.2,2.5,3.4,5,3.3,7.5
			c-0.1,8.4-1.2,16.9-1.6,25.3c-0.1,2.4-0.2,6.3,1.1,7c1.9,1.1,5.7,0.9,7.6-0.3c16.1-10.2,31.9-20.9,47.9-31.2
			c1.3-0.9,3.5-0.3,5.4-0.4c-0.5,2.5-0.1,6.4-1.6,7.4c-15.3,9.7-30.9,18.8-46.4,28.2c-3.7,2.2-4.5,4.6-1.2,8.1
			c12.5,13.1,25.2,25.9,40.7,35.9c16.5,10.6,30.3,24.5,44,38.4c7.6,7.7,15.2,15.4,22.1,23.6c6.4,7.7,12,16.1,18,24.1
			c5.5,7.4,14.9,8.1,20.7,1.5c-5.2-7-5-17.3,0.4-21.3c4.8-3.5,8.1-2.9,11.5,1.8c8.4,11.6,2,27.8-12.1,30.5c-4.9,1-9.9,1.5-14.8,2.3
			C509.7,386,508.6,386,507.4,386z"/>
		<path class="st0" d="M76.2,341.6c2.4-1.6,4.7-3.9,7.4-4.5c4.3-1,6.9,2.6,5.1,6.6c-0.9,2.1-3,4.5,0.4,5.3c1.6,0.4,5.2-1.6,5.8-3.3
			c5.1-14,10.3-28,14.4-42.3c4.3-15,7-30.5,11.1-45.6c1.1-4,3.7-9.4,6.9-10.5c5.1-1.7,6.1,4.8,7.4,8.2c3.5,9.2,6,18.7,9,28
			c0.6,2,1.8,3.8,4,5.4c0.3-1.6,0.8-3.1,0.7-4.7c-1-12.9,3.4-24.8,6.4-37c1.7-6.7,1.4-14,3.4-20.6c7-22.7,19.9-41.9,36.4-58.8
			c1.9-2,4.5-3.4,6.8-5c1.9,0,3.8,0,5.7,0c0.9,1.1,1.7,2.3,2.7,3.4c4.9,5.2,5.4,12.3,1.2,16.2c-4.5,4.2-10.1,2.9-15.9-4.5
			c-2.5,2.5-5.3,4.6-7.3,7.4c-9.1,12.1-17.6,24.7-22.4,39.2c-2.3,7.1-2.6,14.8-3.8,22.2c-0.4,2.2-0.3,4.7-1.3,6.6
			c-5.8,11.7-4.8,24.1-4.4,36.4c0.2,6.1,2,12.2,2.2,18.4c0.1,2.3-2.2,4.6-3.4,6.9c-1.8-1.1-4.3-1.7-5.2-3.3
			c-4.4-8.3-8.8-16.7-12.4-25.4c-3.1-7.5-5.1-15.4-7.5-23.1c-0.3-0.8-0.7-1.6-1.5-3.6c-1.4,3.2-2.7,5.3-3.2,7.5
			c-3.2,12.5-6.1,25.2-9.5,37.7c-4.2,15.8-8.5,31.6-13.3,47.2c-0.9,2.8-4.4,6.8-6.6,6.7c-4.6-0.2-9.7-1.8-13.3-4.6
			c-3-2.3-4.1-7-6.1-10.6C76.2,343.1,76.2,342.4,76.2,341.6z"/>
		<path class="st0" d="M259.6,235c-2.2,8.2-4,15.9-6.4,23.3c-0.5,1.7-3.1,3.4-5,3.6c-1.2,0.1-3.1-2.2-4-3.8c-0.7-1.4-0.4-3.3-0.6-5
			c-0.4-5.1-3.8-7.7-8.4-5.5c-16.6,7.9-25.9,21.8-12.6,39.9c5.2,7,10.2,14.1,15.2,21.2c6,8.5,7.2,17.3,3.3,27.3
			c-4.6,11.7-9.7,22.5-22,28.1c-8.6,3.9-17.9,2.2-24.4-4.6c-5.3-5.5-10.3-11.1-9.8-19.6c0.1-2.5-1.8-6.7-0.9-7.3
			c6.4-4.4,10.2-12.9,19.3-13c7.9,0,16.2,14.6,11.8,21.2c-1.4,2.1-5.9,3.9-8.3,3.3c-3.5-1-4.3-4.6-2.7-8.5c0.6-1.4,0.3-4.8-0.2-5
			c-2.3-0.6-5.3-1.3-7.2-0.3c-4.4,2.4-6.1,8.7-4.6,14.7c2.8,11.6,15.6,16.9,25.5,10.4c5.9-3.9,10.9-8.8,12.1-16.4
			c0.2-1.3,0.8-2.6,1.4-3.7c5-8.9,3.3-17.1-2.2-25c-4.8-6.8-9.8-13.5-14.4-20.4c-2.1-3.1-3.6-6.6-5.2-10.1
			c-4.9-10.9,0.5-19.6,7.2-27.2c7.3-8.3,15.7-15,28.2-11.5c1.4,0.4,4.2-2.3,5.5-4.1C253.6,232.5,254.9,232,259.6,235z"/>
		<path class="st0" d="M560.5,303.5c-4.2,2.5-8.7,4.1-14,4c-6.4-0.1-12.9,0.1-19.3-0.1c-2.1-0.1-4.1-1.1-6.2-1.6
			c0.9-1.8,1.5-3.7,2.7-5.2c6-8,12.5-15.7,18.3-23.8c4.4-6.1,3.5-7.6-2.4-11.7c-3.8-2.6-8.2-5.5-10.4-9.4
			c-4.7-8.1-12.2-12.9-19.4-18c-8-5.7-14.5-4.5-19.3,3.3c-1,1.6-0.1,4.3-0.1,6.5c2-0.3,4.5,0,5.8-1.1c3.5-2.9,6.8-3.4,10.1-0.3
			c6.3,5.9,12.5,11.9,18.7,17.9c1.2,1.2,2.2,2.6,3.5,3.6c6.1,4.6,6.4,5.7,1.6,11.6c-7.4,9.1-15,17.9-22.4,27
			c-1.1,1.4-2.3,3.9-1.8,5.3c0.5,1.4,3.1,2.6,4.9,2.8c8.3,0.7,16.6,1,24.9,1.5c8.8,0.3,17.4,0.2,25.2-3.6
			C561.5,309.5,561.9,305.6,560.5,303.5z"/>
		<path class="st0" d="M754.1,272.6c1.5-1.8,3.1-3.5,4.3-5.4c2.7-4.1,5.1-3,8.2-0.2c6.4,5.9,7.9,14,10.3,21.6
			c4.5,14.4,5.7,29.3,5.8,44.3c0,1.6-1.2,3.2-1.8,4.8c-1.7-1.3-4.2-2.2-4.8-3.8c-1.1-2.7-1.4-5.9-1.3-8.9c0.3-12.3-3-23.8-7.2-35.2
			c-0.8-2.3-0.9-4.9-2-7c-0.9-1.6-2.7-3.6-4.3-3.7c-1.4-0.1-3.5,1.6-4.5,3.1c-5.3,7.9-6.6,16.7-5.9,26c0.2,3.4,0.2,6.9-0.6,10.1
			c-0.4,1.7-2.7,3-4.2,4.4c-1.4-1.6-4-3.1-4.1-4.7c-0.4-7.3-0.4-14.6,0.2-21.9c0.6-8.3,2.5-16.5,2.5-24.7c0-3.3-3.5-6.7-5.4-10
			c-0.9-1.6-2.8-3.6-2.4-4.6c0.7-1.6,2.8-3.2,4.6-3.6c8.7-2.1,11.3,0.6,10.1,9.7c-0.4,3.1,0.3,6.3,0.5,9.4
			C752.7,272.4,753.4,272.5,754.1,272.6z"/>
		<path class="st0" d="M492.4,312.5c-1.5,1.3-3.7,3-5.5,5.1c-2.4,2.8-4.8,3-8,1.6c-10.4-4.3-13.4-9.8-11.4-22.1
			c1.7-10.6,3.6-21.2,5.4-31.8c0.2-1.1,0.4-2.4,1.1-3.2c1.4-1.6,3.2-2.9,4.8-4.4c0.5,2,1.6,4,1.4,5.9c-1.3,10.3-3,20.5-4.2,30.7
			c-0.5,4-0.3,8.3,0.5,12.2c0.9,4.3,5.1,4.6,8.7,1.7c7.2-5.8,7.4-14.1,8.5-22c0.4-3-0.3-6.1,0.2-9c0.2-1.5,1.9-4,3-4
			c1.6,0,4,1.2,4.8,2.7c1,1.6,1.2,4.1,0.7,6c-3.1,13.8,0.4,26.6,5.5,39.3c0.5,1.2,1.6,2.5,1.4,3.6c-0.3,2.4-1.3,4.7-2.1,7
			c-2.3-0.8-5.6-1-6.6-2.6C497.5,324,495.2,318.3,492.4,312.5z"/>
		<path class="st0" d="M592.5,310.1c-1.5,1.4-3.8,3-5.5,5.1c-2.4,2.8-4.9,2.9-8.1,1.6c-10.4-4.3-13.4-9.9-11.4-22.1
			c1.7-10.6,3.6-21.2,5.4-31.8c0.2-0.9,0.2-2.1,0.8-2.7c1.6-1.7,3.4-3.2,5.1-4.8c0.5,2,1.6,4,1.3,5.9c-1.3,10.3-3,20.5-4.2,30.7
			c-0.5,3.8-0.4,7.9,0.3,11.7c1,4.7,5.1,5.2,8.9,2.1c7.2-5.8,7.4-14.1,8.5-22c0.4-2.8-0.3-5.7,0.2-8.5c0.3-1.7,1.9-3.2,3-4.8
			c1.7,1.1,3.8,2,5,3.5c0.9,1.1,1,3.3,0.6,4.9c-3.2,14.4,0.2,27.8,5.9,40.8c0.4,0.9,1.1,1.9,0.9,2.6c-0.5,2.4-1.4,4.7-2.1,7
			c-2.3-0.8-5.6-1-6.6-2.6C597.6,321.7,595.4,316.1,592.5,310.1z"/>
		<path class="st0" d="M641.1,307.9c3.6-0.3,8.4-2.7,12.2-7.5c1.5-1.9,3.9-4,6-4.2c2.1-0.2,5,1.5,6.4,3.2c0.7,0.8-0.9,3.9-2,5.7
			c-2.3,3.8-5.1,7.3-7.3,11.1c-2.3,4-4.8,4.4-8.5,1.6c-1.8-1.3-4.4-2.3-6.5-2.1c-14,1.1-22-7.2-28.8-17.5
			c-4.8-7.2,0.5-18.9,6.1-22.8c7.4-5.1,15.5-9.9,25.2-8.7c3.5,0.4,6.9,1.6,10.2,3c3.4,1.4,5.8,1,8.5-1.8c1.4-1.4,4.9-2.3,6.5-1.5
			c3.2,1.7,2.4,4.5,0.1,7c-1.8,2-2.9,4.4-4.6,6.5c-3.8,4.6-6.4,4.4-9.6-0.4c-3.8-5.6-11.5-7.5-19.3-4.8
			c-11.9,4.2-16.1,8.7-15.5,16.7C620.6,299.4,630.2,308,641.1,307.9z"/>
		<path class="st0" d="M712.4,273.8c-0.8,7.9-1.8,15.8-2.4,23.7c-0.5,6.8,1.7,8.3,8.5,6.9c1.1-0.2,2.2-0.4,3.4-0.4
			c3-0.1,6.4-0.5,6.9,3.8c0.5,4-2.7,8.1-6.5,8.5c-0.6,0.1-1.2,0.2-1.7,0c-10.4-4-19.7,1.6-29.4,3.2c-2,0.3-5.1-1-6.3-2.7
			c-8-10.8,0.2-21.1,10.7-26c5.6-2.6,9-5.3,8.6-11.4c-0.1-2.1-1.1-5.6-2.3-5.9c-2.4-0.6-5.7-0.1-7.6,1.3c-2.7,1.9-4.5,7.2-8.3,3
			c-3.6-4,0.9-6.6,3.6-9.2c6.5-6.2,13.9-3.4,20.9-1.7c1.5,0.4,2.1,4.1,3.2,6.2C713.1,273.4,712.8,273.6,712.4,273.8z M698.8,297.1
			c-2.8,2.5-5.6,4.6-7.6,7.1c-1,1.2-1.4,3.9-0.7,5c0.7,1.1,3.3,1.7,4.9,1.5C702.5,309.8,704.1,304.2,698.8,297.1z"/>
		<path class="st0" d="M270.7,267.5c13.6,0.7,14.3,1.6,12.3,14.7c-0.9,5.8-1.5,11.6-1.9,17.5c-0.4,6.8,1.7,8.5,8.4,7.1
			c1.1-0.2,2.2-0.4,3.4-0.4c3,0,6.4-0.7,7,3.7c0.5,4-2.6,8.2-6.4,8.6c-0.6,0.1-1.2,0.2-1.7,0c-10.4-3.9-19.7,1.4-29.4,3.4
			c-3.4,0.7-5.1-0.3-7-3.1C248,308,256.9,297.1,267,293c6-2.4,8.4-5.9,8.2-11.7c-0.1-1.9-1-5.1-2.2-5.5c-2.2-0.7-4.9,0.3-7.4,0.7
			c-0.6,0.1-1.1,1-1.4,1.7c-1.7,2.7-3.9,4.9-6.9,2.5c-3.1-2.6-1.4-5.5,1-7.7C261.9,269.6,265.6,266.2,270.7,267.5z M269.9,299.4
			c-2.8,2.6-5.5,4.6-7.6,7.2c-1,1.2-1.4,3.9-0.7,5c0.7,1.1,3.3,1.7,4.9,1.5C273.5,312,275.2,306.5,269.9,299.4z"/>
		<path class="st0" d="M191.5,274c-1.3,9.7-2.9,19.4-3.8,29.1c-0.2,2.3,1.3,5.2,2.9,7.1c2.7,3.2,2.4,7.1-1.7,8.3
			c-4.5,1.3-9.3,2-13.9,2c-1.9,0-4.6-2.1-5.3-3.8c-0.5-1.3,1.1-4.8,2.5-5.4c8.1-3.3,8.6-9.9,8.8-17.1c0.2-8.2,0.4-16.4,1.6-24.5
			c0.3-2.3,4-4.1,6.2-6.1c0.8,1.7,1.9,3.4,2.3,5.2c0.4,1.6,0.1,3.4,0.1,5.1C191.3,273.9,191.4,273.9,191.5,274z"/>
		<path class="st0" d="M195.4,244.2c-0.2,1.8,0.2,4.1-0.7,5.4c-2,2.9-4.3,6.3-8.7,3.6c-3.4-2.1-4.6-7.7-2.4-10.9
			c0.7-0.9,1.3-2.1,2.3-2.5c2.6-1.2,5.3-2,8-2.9c0.8,2.3,1.6,4.6,2.3,6.9C195.9,244,195.7,244.1,195.4,244.2z"/>
	</g>
</g>
</svg>
